<?xml version="1.0" encoding="iso-8859-1"?>
<!-- Generator: Adobe Illustrator 19.0.0, SVG Export Plug-In . SVG Version: 6.00 Build 0)  -->
<svg version="1.1" id="Layer_1" xmlns="http://www.w3.org/2000/svg" xmlns:xlink="http://www.w3.org/1999/xlink" x="0px" y="0px"
	 viewBox="0 0 502 502" style="enable-background:new 0 0 502 502;" xml:space="preserve">
<g>
	<path style="fill:#FCC54E;" d="M352.583,211.919c0-67.689-54.588-122.629-122.143-123.197
		c-67.974-0.572-124.261,55.222-124.26,123.198c0,33.247,13.171,63.416,34.579,85.577c25.593,26.494,40.024,61.808,40.024,98.645
		v13.156h97.197v-13.15c0-36.544,13.862-71.932,39.432-98.042C339.169,275.889,352.583,245.472,352.583,211.919z"/>
	<rect x="180.783" y="409.297" style="fill:#3CB7C6;" width="97.197" height="57.125"/>
	<path style="fill:#FFFFFF;" d="M253.254,466.422c0,14.126-11.452,25.578-25.578,25.578s-25.578-11.452-25.578-25.578H253.254z"/>
	<g>
		<path d="M230.523,78.722c-35.583-0.342-69.221,13.48-94.756,38.802C110.239,142.84,96.18,176.363,96.18,211.92
			c0,34.708,13.278,67.567,37.387,92.524c24,24.844,37.216,57.409,37.216,91.697v13.156v57.125c0,5.523,4.477,10,10,10h12.756
			C197.871,491.185,211.53,502,227.676,502s29.805-10.815,34.138-25.578h16.166c5.523,0,10-4.477,10-10v-57.125v-13.15
			c0-34.627,12.99-66.961,36.576-91.044c24.522-25.04,38.027-58.133,38.027-93.185c0-35.38-13.723-68.697-38.64-93.812
			C299.041,93.006,265.864,79.02,230.523,78.722z M227.676,482c-4.787,0-9.076-2.17-11.936-5.578h23.872
			C236.752,479.83,232.463,482,227.676,482z M267.98,456.422h-14.726h-51.156h-11.315v-37.125h77.197V456.422z M310.267,291.109
			c-27.269,27.844-42.287,65.148-42.287,105.039v3.15h-77.197v-3.156c0-39.5-15.211-77-42.832-105.593
			c-20.488-21.208-31.771-49.133-31.771-78.629c0-30.183,11.958-58.663,33.67-80.194c21.72-21.538,50.338-33.226,80.505-33.005
			c61.882,0.521,112.228,51.301,112.228,113.197C342.583,241.707,331.106,269.83,310.267,291.109z"/>
		<path d="M229.381,55.584c5.523,0,10-4.477,10-10V10c0-5.523-4.477-10-10-10s-10,4.477-10,10v35.584
			C219.381,51.107,223.858,55.584,229.381,55.584z"/>
		<path d="M85.246,29.896c1.957,2.693,5.006,4.123,8.099,4.123c2.038,0,4.095-0.621,5.87-1.91c4.468-3.247,5.458-9.5,2.212-13.968
			l-7.108-9.783C91.073,3.89,84.82,2.9,80.351,6.146c-4.468,3.247-5.458,9.5-2.212,13.968L85.246,29.896z"/>
		<path d="M124.729,84.239c1.957,2.693,5.006,4.123,8.099,4.123c2.038,0,4.095-0.621,5.87-1.91c4.468-3.246,5.458-9.5,2.212-13.968
			l-19.113-26.308c-3.246-4.468-9.499-5.459-13.968-2.212c-4.468,3.246-5.458,9.5-2.212,13.968L124.729,84.239z"/>
		<path d="M37.031,160.15l33.843,10.996c1.027,0.333,2.068,0.492,3.092,0.492c4.215,0,8.136-2.687,9.509-6.913
			c1.707-5.253-1.168-10.894-6.42-12.601l-33.843-10.996c-5.251-1.705-10.894,1.168-12.601,6.42
			C28.904,152.802,31.778,158.443,37.031,160.15z"/>
		<path d="M84.808,260.51c-1.707-5.253-7.346-8.126-12.601-6.42l-33.843,10.996c-5.252,1.707-8.127,7.348-6.42,12.601
			c1.373,4.226,5.293,6.913,9.509,6.913c1.024,0,2.065-0.159,3.092-0.492l33.843-10.996C83.64,271.404,86.514,265.763,84.808,260.51
			z"/>
		<path d="M102.626,391.668c-4.467-3.246-10.721-2.255-13.968,2.212l-8.903,12.253c-3.246,4.468-2.256,10.722,2.212,13.968
			c1.775,1.29,3.832,1.91,5.87,1.91c3.092,0,6.142-1.43,8.099-4.123l8.903-12.253C108.085,401.168,107.095,394.915,102.626,391.668z
			"/>
		<path d="M134.544,347.736c-4.468-3.246-10.722-2.255-13.968,2.212l-8.845,12.175c-3.246,4.468-2.255,10.722,2.212,13.968
			c1.775,1.29,3.832,1.91,5.87,1.91c3.092,0,6.142-1.43,8.099-4.123l8.845-12.175C140.003,357.236,139.012,350.982,134.544,347.736z
			"/>
		<path d="M338.347,336.895c-3.246-4.468-9.499-5.459-13.968-2.212c-4.468,3.247-5.458,9.5-2.212,13.968l20.916,28.789
			c1.957,2.693,5.006,4.123,8.099,4.123c2.038,0,4.095-0.621,5.87-1.91c4.468-3.247,5.458-9.5,2.212-13.968L338.347,336.895z"/>
		<path d="M426.045,260.984l-33.843-10.997c-5.252-1.705-10.894,1.168-12.601,6.42c-1.707,5.252,1.168,10.894,6.42,12.601
			l33.843,10.997c1.027,0.333,2.068,0.492,3.092,0.492c4.215,0,8.136-2.687,9.509-6.913
			C434.172,268.333,431.298,262.691,426.045,260.984z"/>
		<path d="M471.39,130.367c-1.706-5.252-7.347-8.127-12.601-6.42l-14.678,4.769c-5.252,1.707-8.127,7.348-6.42,12.601
			c1.373,4.226,5.293,6.913,9.509,6.913c1.024,0,2.065-0.159,3.092-0.492l14.678-4.769
			C470.222,141.261,473.096,135.62,471.39,130.367z"/>
		<path d="M387.777,167.536c1.024,0,2.065-0.159,3.092-0.492l25.994-8.446c5.252-1.707,8.127-7.348,6.42-12.601
			c-1.707-5.252-7.347-8.127-12.601-6.42l-25.994,8.446c-5.252,1.707-8.127,7.348-6.42,12.601
			C379.642,164.849,383.562,167.536,387.777,167.536z"/>
		<path d="M320.89,83.916c1.775,1.29,3.832,1.91,5.87,1.91c3.092,0,6.142-1.43,8.099-4.123l20.916-28.789
			c3.246-4.468,2.255-10.722-2.212-13.968c-4.469-3.246-10.722-2.255-13.968,2.212l-20.916,28.789
			C315.431,74.416,316.422,80.669,320.89,83.916z"/>
		<path d="M288.349,135.549c-11.289-8.76-24.609-14.981-38.521-17.992c-5.395-1.169-10.721,2.26-11.889,7.659
			c-1.168,5.398,2.261,10.721,7.659,11.889c11.007,2.382,21.55,7.308,30.491,14.245c1.823,1.415,3.981,2.1,6.124,2.1
			c2.984,0,5.937-1.33,7.907-3.87C293.505,145.217,292.712,138.935,288.349,135.549z"/>
		<path d="M202.914,119.066c-41.096,11.729-69.797,49.799-69.797,92.579c0,5.523,4.477,10,10,10s10-4.477,10-10
			c0-33.895,22.735-64.056,55.287-73.346c5.311-1.516,8.387-7.05,6.872-12.361C213.758,120.628,208.224,117.55,202.914,119.066z"/>
	</g>
</g>
<g>
</g>
<g>
</g>
<g>
</g>
<g>
</g>
<g>
</g>
<g>
</g>
<g>
</g>
<g>
</g>
<g>
</g>
<g>
</g>
<g>
</g>
<g>
</g>
<g>
</g>
<g>
</g>
<g>
</g>
</svg>
