<?xml version="1.0" encoding="iso-8859-1"?>
<!-- Generator: Adobe Illustrator 19.0.0, SVG Export Plug-In . SVG Version: 6.00 Build 0)  -->
<svg version="1.1" id="Layer_1" xmlns="http://www.w3.org/2000/svg" xmlns:xlink="http://www.w3.org/1999/xlink" x="0px" y="0px"
	 viewBox="0 0 297.001 297.001" style="enable-background:new 0 0 297.001 297.001;" xml:space="preserve">
<g>
	<path style="fill:#17AB93;" d="M288.514,65.889H8.486C3.799,65.889,0,69.688,0,74.375v148.25c0,4.686,3.799,8.486,8.486,8.486
		h280.029c4.686,0,8.486-3.799,8.486-8.486V74.375C297,69.688,293.201,65.889,288.514,65.889z"/>
	<path style="fill:#129179;" d="M288.514,65.889H149.166v165.222h139.348c4.686,0,8.486-3.799,8.486-8.486V74.375
		C297,69.688,293.201,65.889,288.514,65.889z"/>
	<polygon style="fill:#82D9C8;" points="60.907,78.368 12.479,78.368 12.479,126.796 	"/>
	<polygon style="fill:#82D9C8;" points="284.521,170.204 236.093,218.632 284.521,218.632 	"/>
	<polygon style="fill:#82D9C8;" points="60.907,218.632 12.479,170.204 12.479,218.632 	"/>
	<polygon style="fill:#82D9C8;" points="284.521,78.368 236.093,78.368 284.521,126.796 	"/>
	<path style="fill:#D5F5E6;" d="M148.5,94.092c-30.001,0-54.408,24.407-54.408,54.408s24.407,54.408,54.408,54.408
		s54.408-24.407,54.408-54.408S178.501,94.092,148.5,94.092z"/>
	<path style="fill:#C6E5D5;" d="M202.908,148.5c0-29.778-24.048-54.032-53.743-54.392v108.783
		C178.86,202.532,202.908,178.278,202.908,148.5z"/>
</g>
<g>
</g>
<g>
</g>
<g>
</g>
<g>
</g>
<g>
</g>
<g>
</g>
<g>
</g>
<g>
</g>
<g>
</g>
<g>
</g>
<g>
</g>
<g>
</g>
<g>
</g>
<g>
</g>
<g>
</g>
</svg>
