<?xml version="1.0" encoding="iso-8859-1"?>
<!-- Generator: Adobe Illustrator 19.0.0, SVG Export Plug-In . SVG Version: 6.00 Build 0)  -->
<svg version="1.1" id="Layer_1" xmlns="http://www.w3.org/2000/svg" xmlns:xlink="http://www.w3.org/1999/xlink" x="0px" y="0px"
	 viewBox="0 0 512 512" style="enable-background:new 0 0 512 512;" xml:space="preserve">
<path style="fill:#D6E5F6;" d="M255.997,49.053C114.842,49.053,0,163.896,0,305.056c0,53.281,16.396,104.495,47.416,148.106
	c4.366,6.139,11.433,9.785,18.967,9.785h379.231c7.531,0,14.594-3.645,18.961-9.779C495.6,409.575,512,358.36,512,305.056
	C512,163.896,397.157,49.053,255.997,49.053z"/>
<path style="fill:#A4C6EC;" d="M256.067,49.053v413.895h189.546c7.531,0,14.594-3.645,18.961-9.779
	C495.6,409.575,512,358.36,512,305.056C512,163.919,397.197,49.091,256.067,49.053z"/>
<path style="fill:#385C8E;" d="M93.167,271.61h-69.64c-12.851,0-23.273,10.418-23.273,23.273c0,12.851,10.422,23.273,23.273,23.273
	h69.64c12.854,0,23.273-10.422,23.273-23.273C116.44,282.028,106.021,271.61,93.167,271.61z"/>
<g>
	<path style="fill:#1D3366;" d="M488.509,271.61h-69.421c-12.851,0-23.273,10.418-23.273,23.273
		c0,12.851,10.422,23.273,23.273,23.273h69.421c12.854,0,23.273-10.422,23.273-23.273
		C511.781,282.028,501.364,271.61,488.509,271.61z"/>
	<path style="fill:#1D3366;" d="M256,49.053c-0.019,0-0.039,0-0.057,0c-12.851,0.029-23.248,10.473-23.218,23.327l0.14,59.589
		c0.031,12.834,10.443,23.218,23.273,23.218c0.019,0,0.036,0,0.054,0c12.854-0.031,23.248-10.474,23.218-23.327l-0.14-59.589
		C279.24,59.437,268.828,49.053,256,49.053z"/>
</g>
<path style="fill:#385C8E;" d="M113.217,119.057c-9.089-9.087-23.825-9.086-32.914,0.002c-9.087,9.089-9.086,23.824,0.003,32.914
	l44.13,44.124c4.546,4.544,10.501,6.816,16.454,6.816c5.958,0,11.916-2.275,16.457-6.817c9.087-9.089,9.087-23.824-0.002-32.912
	L113.217,119.057z"/>
<path style="fill:#1D3366;" d="M431.833,119.18c-9.087-9.087-23.824-9.09-32.912-0.002L354.9,163.19
	c-9.087,9.086-9.09,23.822-0.003,32.912c4.546,4.546,10.502,6.819,16.457,6.819c5.956,0,11.913-2.273,16.454-6.816l44.021-44.012
	C440.919,143.006,440.922,128.27,431.833,119.18z"/>
<path style="fill:#D8145D;" d="M329.129,232.836c-10.065-7.992-24.706-6.31-32.698,3.756l-37.534,47.279
	c-0.352-0.009-0.701-0.025-1.057-0.025c-21.386,0-38.789,17.399-38.794,38.793c0.005,21.385,17.408,38.783,38.794,38.783
	c10.361,0,20.1-4.034,27.425-11.357c7.328-7.328,11.36-17.07,11.36-27.428c0-3.367-0.433-6.667-1.261-9.843l37.522-47.262
	C340.877,255.466,339.195,240.828,329.129,232.836z"/>
<g>
</g>
<g>
</g>
<g>
</g>
<g>
</g>
<g>
</g>
<g>
</g>
<g>
</g>
<g>
</g>
<g>
</g>
<g>
</g>
<g>
</g>
<g>
</g>
<g>
</g>
<g>
</g>
<g>
</g>
</svg>
