<?xml version="1.0" encoding="iso-8859-1"?>
<!-- Generator: Adobe Illustrator 19.0.0, SVG Export Plug-In . SVG Version: 6.00 Build 0)  -->
<svg version="1.1" id="Layer_1" xmlns="http://www.w3.org/2000/svg" xmlns:xlink="http://www.w3.org/1999/xlink" x="0px" y="0px"
	 viewBox="0 0 512 512" style="enable-background:new 0 0 512 512;" xml:space="preserve">
<path style="fill:#FF4B26;" d="M507.137,249.794L263.444,4.926c-3.131-3.163-7.402-4.924-11.837-4.924H16.696
	C7.467,0.002,0,7.47,0,16.698v233.737c0,4.434,1.761,8.674,4.892,11.804l244.867,244.867c6.522,6.522,17.086,6.522,23.609,0
	l233.737-233.737C513.626,266.848,513.626,256.315,507.137,249.794z M116.869,166.957c-27.619,0-50.087-22.468-50.087-50.087
	s22.468-50.087,50.087-50.087s50.087,22.468,50.087,50.087S144.487,166.957,116.869,166.957z"/>
<path style="fill:#D93F21;" d="M0,250.435c0,4.434,1.761,8.674,4.892,11.804l244.867,244.867c6.521,6.521,17.087,6.521,23.609,0
	l116.869-116.869L152.27,152.271c-9.069,9.069-21.591,14.686-35.4,14.686c-27.619,0-50.087-22.468-50.087-50.087
	c0-13.809,5.616-26.331,14.686-35.4L4.887,4.89C1.867,7.909,0,12.083,0,16.698V250.435z"/>
<g>
</g>
<g>
</g>
<g>
</g>
<g>
</g>
<g>
</g>
<g>
</g>
<g>
</g>
<g>
</g>
<g>
</g>
<g>
</g>
<g>
</g>
<g>
</g>
<g>
</g>
<g>
</g>
<g>
</g>
</svg>
