<?xml version="1.0" encoding="iso-8859-1"?>
<!-- Generator: Adobe Illustrator 19.0.0, SVG Export Plug-In . SVG Version: 6.00 Build 0)  -->
<svg version="1.1" id="Layer_1" xmlns="http://www.w3.org/2000/svg" xmlns:xlink="http://www.w3.org/1999/xlink" x="0px" y="0px"
	 viewBox="0 0 512 512" style="enable-background:new 0 0 512 512;" xml:space="preserve">
<path style="fill:#EDEDED;" d="M489.739,44.522v422.957c0,12.295-9.966,22.261-22.261,22.261H44.522
	c-12.295,0-22.261-9.966-22.261-22.261V44.522c0-12.295,9.966-22.261,22.261-22.261h422.957
	C479.773,22.261,489.739,32.227,489.739,44.522z"/>
<path style="fill:#777777;" d="M509.555,487.294l-22.261,22.261c-1.629,1.629-3.767,2.445-5.902,2.445
	c-2.136,0-4.273-0.815-5.902-2.445c-3.26-3.26-3.26-8.546,0-11.805l8.011-8.011H28.502l8.011,8.011c3.26,3.26,3.26,8.546,0,11.805
	c-1.631,1.631-3.767,2.445-5.904,2.445s-4.273-0.815-5.902-2.445L2.445,487.294c-3.26-3.26-3.26-8.546,0-11.805l22.261-22.261
	c3.26-3.26,8.546-3.26,11.805,0c3.26,3.26,3.26,8.546,0,11.805l-8.009,8.011h454.998l-8.011-8.011c-3.26-3.26-3.26-8.546,0-11.805
	c3.26-3.26,8.546-3.26,11.805,0l22.261,22.261C512.815,478.748,512.815,484.035,509.555,487.294z"/>
<path style="fill:#98C7E5;" d="M512,411.826L512,411.826c0,12.295-9.966,22.261-22.261,22.261H22.261
	C9.966,434.087,0,424.121,0,411.826l0,0v-1.379c0-11.533,9.348-20.882,20.882-20.882l0,0c21.792,0,42.213-10.633,54.711-28.485
	l11.975-17.109c30.504-43.578,54.541-91.341,71.363-141.805l9.169-27.507c12.611-37.836,48.019-63.356,87.9-63.356l0,0
	c39.881,0,75.29,25.52,87.902,63.356l9.169,27.507c16.821,50.464,40.859,98.228,71.364,141.807l11.975,17.106
	c12.495,17.852,32.916,28.485,54.708,28.485l0,0c11.532,0,20.882,9.348,20.882,20.882V411.826z"/>
<path style="fill:#73A4BC;" d="M87.568,343.972C102.66,322.41,116.164,299.82,128,276.39v157.697H22.261
	C9.966,434.087,0,424.121,0,411.826v-1.379c0-11.533,9.348-20.882,20.882-20.882l0,0c21.792,0,42.213-10.633,54.711-28.485
	L87.568,343.972z M353.07,202.167L343.9,174.66c-12.611-37.836-48.019-63.356-87.9-63.356l0,0v322.783h128V276.39
	C371.915,252.465,361.568,227.662,353.07,202.167z"/>
<path style="fill:#56889B;" d="M264.348,288.278v4.452c0,4.611-3.738,8.348-8.348,8.348s-8.348-3.736-8.348-8.348v-4.452
	c0-4.611,3.738-8.348,8.348-8.348S264.348,283.667,264.348,288.278z M256,317.774c-4.61,0-8.348,3.736-8.348,8.348v4.452
	c0,4.611,3.738,8.348,8.348,8.348s8.348-3.736,8.348-8.348v-4.452C264.348,321.51,260.61,317.774,256,317.774z M256,204.243
	c-4.61,0-8.348,3.736-8.348,8.348v4.452c0,4.611,3.738,8.348,8.348,8.348s8.348-3.736,8.348-8.348v-4.452
	C264.348,207.98,260.61,204.243,256,204.243z M256,355.617c-4.61,0-8.348,3.736-8.348,8.348v4.452c0,4.611,3.738,8.348,8.348,8.348
	s8.348-3.736,8.348-8.348v-4.452C264.348,359.354,260.61,355.617,256,355.617z M256,393.461c-4.61,0-8.348,3.736-8.348,8.348v4.452
	c0,4.611,3.738,8.348,8.348,8.348s8.348-3.736,8.348-8.348v-4.452C264.348,397.197,260.61,393.461,256,393.461z M256,242.087
	c-4.61,0-8.348,3.736-8.348,8.348v4.452c0,4.611,3.738,8.348,8.348,8.348s8.348-3.736,8.348-8.348v-4.452
	C264.348,245.823,260.61,242.087,256,242.087z M256,166.4c-4.61,0-8.348,3.736-8.348,8.348v4.452c0,4.611,3.738,8.348,8.348,8.348
	s8.348-3.736,8.348-8.348v-4.452C264.348,170.136,260.61,166.4,256,166.4z M256,128.557c-4.61,0-8.348,3.736-8.348,8.348v4.452
	c0,4.611,3.738,8.348,8.348,8.348s8.348-3.736,8.348-8.348v-4.452C264.348,132.293,260.61,128.557,256,128.557z M384,393.461
	c-4.61,0-8.348,3.736-8.348,8.348v4.452c0,4.611,3.738,8.348,8.348,8.348c4.61,0,8.348-3.736,8.348-8.348v-4.452
	C392.348,397.197,388.61,393.461,384,393.461z M384,317.774c-4.61,0-8.348,3.736-8.348,8.348v4.452c0,4.611,3.738,8.348,8.348,8.348
	c4.61,0,8.348-3.736,8.348-8.348v-4.452C392.348,321.51,388.61,317.774,384,317.774z M384,355.617c-4.61,0-8.348,3.736-8.348,8.348
	v4.452c0,4.611,3.738,8.348,8.348,8.348c4.61,0,8.348-3.736,8.348-8.348v-4.452C392.348,359.354,388.61,355.617,384,355.617z
	 M128,317.774c-4.61,0-8.348,3.736-8.348,8.348v4.452c0,4.611,3.738,8.348,8.348,8.348s8.348-3.736,8.348-8.348v-4.452
	C136.348,321.51,132.61,317.774,128,317.774z M128,355.617c-4.61,0-8.348,3.736-8.348,8.348v4.452c0,4.611,3.738,8.348,8.348,8.348
	s8.348-3.736,8.348-8.348v-4.452C136.348,359.354,132.61,355.617,128,355.617z M128,393.461c-4.61,0-8.348,3.736-8.348,8.348v4.452
	c0,4.611,3.738,8.348,8.348,8.348s8.348-3.736,8.348-8.348v-4.452C136.348,397.197,132.61,393.461,128,393.461z"/>
<path style="fill:#FF6029;" d="M322.783,22.261v11.13c0,12.295-9.966,22.261-22.261,22.261h-22.261l-5.963,11.924
	c-2.549,5.098-7.231,8.924-12.828,10.004c-8.11,1.564-16.017-2.498-19.58-9.622l-6.152-12.306h-22.261
	c-12.295,0-22.261-9.966-22.261-22.261v-11.13C189.217,9.966,199.184,0,211.478,0h89.043C312.816,0,322.783,9.966,322.783,22.261z"
	/>
<path style="fill:#B7441C;" d="M292.174,27.826c0,4.611-3.738,8.348-8.348,8.348h-55.652c-4.61,0-8.348-3.736-8.348-8.348
	s3.738-8.348,8.348-8.348h55.652C288.436,19.478,292.174,23.215,292.174,27.826z"/>
<g>
</g>
<g>
</g>
<g>
</g>
<g>
</g>
<g>
</g>
<g>
</g>
<g>
</g>
<g>
</g>
<g>
</g>
<g>
</g>
<g>
</g>
<g>
</g>
<g>
</g>
<g>
</g>
<g>
</g>
</svg>
